<?xml version="1.0" standalone="no"?>
<!DOCTYPE svg PUBLIC "-//W3C//DTD SVG 20010904//EN"
 "http://www.w3.org/TR/2001/REC-SVG-20010904/DTD/svg10.dtd">
<svg version="1.0" xmlns="http://www.w3.org/2000/svg"
 width="512.000000pt" height="512.000000pt" viewBox="0 0 512.000000 512.000000"
 preserveAspectRatio="xMidYMid meet">
<metadata>
Created by potrace 1.14, written by Peter Selinger 2001-2017
</metadata>
<g transform="translate(0.000000,512.000000) scale(0.100000,-0.100000)"
fill="#000000" stroke="none">
<path d="M520 5104 c-162 -70 -165 -294 -5 -376 37 -19 58 -21 268 -22 l227 0
0 -31 c1 -16 2 -145 3 -285 2 -215 5 -260 19 -285 23 -43 67 -85 105 -101 l33
-14 -30 -49 c-100 -162 -174 -372 -215 -611 -4 -19 -9 -115 -12 -212 -4 -121
-9 -178 -17 -178 -6 0 -30 -15 -53 -33 -208 -160 -193 -473 29 -613 60 -38
103 -50 185 -52 l52 -2 15 -50 c70 -235 200 -454 376 -630 109 -109 200 -180
317 -246 70 -39 83 -50 84 -73 0 -14 2 -35 4 -46 2 -11 5 -43 8 -72 5 -52 5
-53 -31 -75 -47 -28 -43 -26 -127 -96 -198 -166 -333 -380 -405 -642 -11 -41
-20 -86 -20 -100 0 -78 53 -159 125 -191 38 -18 95 -19 1105 -19 1012 1 1067
2 1105 19 75 35 124 112 120 191 -7 121 -93 340 -193 490 -69 103 -221 257
-320 324 -70 49 -72 51 -67 85 2 20 7 63 11 96 6 68 4 64 64 96 313 166 576
482 694 834 l34 100 64 6 c123 11 221 64 282 152 125 183 81 416 -103 532
l-41 25 -1 98 c-3 351 -70 617 -220 873 -21 37 -39 70 -39 72 0 3 11 8 25 11
35 9 90 60 111 104 16 33 18 68 19 317 l1 280 214 2 c118 1 229 5 246 8 18 3
50 19 73 35 125 91 106 280 -36 350 -37 19 -87 19 -2043 19 -1770 0 -2009 -2
-2040 -15z"/>
</g>
</svg>
